<svg x="0px" y="0px" width="247.70419" height="183.6124" viewBox="0 0 247.70419 183.6124">
  <path d="m 19.929246,0.2515057 a 138.62057,138.62057 0 0 0 -7.1836,8.94336 L 123.85894,94.548386 235.04058,9.2788557 a 138.62057,138.62057 0 0 0 -7.33594,-9.02735 l -207.775394,0 z M 1.4175257,26.974166 a 138.62057,138.62057 0 0 0 -1.16602,2.41406 l 0,124.578134 L 72.579636,81.638226 1.4175257,26.974166 Z m 244.9160143,0.10938 -71.25976,54.65039 72.37891,72.380864 0,-125.050794 a 138.62057,138.62057 0 0 0 -1.11915,-1.98046 z M 89.374556,94.542526 11.380416,172.53667 a 138.62057,138.62057 0 0 0 8.61914,10.82422 l 207.779304,0 a 138.62057,138.62057 0 0 0 8.52148,-10.70313 L 158.26714,94.626506 123.84917,121.02105 89.374556,94.542526 Z" />
</svg>
