<svg viewBox="0 0 621 65">
  <g transform="translate(-2.9926994,43.537309)">
    <path d="m 132.91728,-7.7460181 c 5.34722,-7.5674289 3.67273,-18.6790309 -0.89785,-21.8847659 -8.06312,-5.856277 -16.87626,6.366287 -12.83715,18.526962 4.03112,12.5173189 14.12215,21.267746 27.85974,23.769913 29.80335,5.265564 88.75393,-27.178055 126.13977,-37.105835 27.77256,-7.374985 44.73774,3.70697 53.89194,15.9806519 -18.81463,-13.3271329 -35.96277,-8.6919559 -53.61062,-5.4197999 -40.49224,7.5077819 -82.37618,39.384064 -126.75808,34.370102 -20.7208,-3.09549 -35.23915,-23.6711431 -34.04528,-39.805344 0.10605,-1.433762 0.33619,-2.832489 0.69715,-4.180801 2.72755,-9.561676 7.51997,-13.483307 11.76552,-14.646454 11.54058,-3.161896 22.97278,17.871918 7.79486,30.3953699 z" />
    <path d="M 122.73892,-0.91209506 C 114.52557,-8.2010661 106.05212,-19.514405 98.491763,-24.518876 19.004565,-77.134072 -21.734395,-6.0515151 19.026946,14.37596 25.316495,17.528044 38.350425,19.420149 47.688025,6.8696119 36.262064,15.582732 23.583525,12.591078 18.346095,8.0859509 4.4037754,-3.9066941 9.2930854,-20.923387 25.689336,-28.695024 c 25.825468,-9.860992 49.151747,0.688202 69.563787,15.31662 14.578647,8.7359919 18.320047,12.81285094 30.067007,18.1509399 -6.67383,0.277222 -3.16782,-8.493958 -9.51852,-12.610016 l 6.93731,6.92538504 z" />
    <path d="m 489.61188,-11.030625 c -5.67127,7.6310119 -3.89526,18.8363039 0.95227,22.069031 8.55176,5.905624 17.89917,-6.4199831 13.61523,-18.6829681 -4.27526,-12.6227569 -14.97808,-21.4468689 -29.5483,-23.9699859 -31.6099,-5.309998 -94.13334,27.4068149 -133.78531,37.4182429 -29.45575,7.4370421 -47.44922,-3.73822 -57.15821,-16.1152649 19.95496,13.4393769 38.14234,8.7651669 56.85981,5.4654539 42.94665,-7.5709989 87.3692,-39.7157289 134.4411,-34.6595459 21.97668,3.121552 37.375,23.870499 36.10882,40.14054894 -0.11249,1.44593796 -0.35663,2.85633896 -0.73944,4.21601896 -2.89288,9.6421971 -7.97577,13.5967561 -12.47864,14.7697911 -12.24005,3.188507 -24.36514,-18.0224001 -8.26733,-30.651321 z" />
    <path d="m 499.59714,-20.554386 c 8.48388,7.11867 17.23645,18.1676599 25.04595,23.0551999 82.10563,51.3857891 124.18658,-18.0358599 82.0825,-37.9861499 -6.49678,-3.07829 -19.96007,-4.92607 -29.60526,7.33109 11.80239,-8.50954 24.89857,-5.58778 30.30855,-1.18792 14.40162,11.71242 9.35119,28.3314999 -7.58485,35.9215399 -26.67651,9.6305501 -50.77121,-0.67213 -71.8557,-14.95874 -15.05912,-8.5318599 -18.92373,-12.5134399 -31.05749,-17.7268199 6.8937,-0.27074 3.27219,8.29548 9.83217,12.31538 l -7.16587,-6.76358 z" />
  </g>
</svg>
