<?xml version="1.0" encoding="UTF-8" standalone="no"?>
<svg
   xmlns:dc="http://purl.org/dc/elements/1.1/"
   xmlns:cc="http://creativecommons.org/ns#"
   xmlns:rdf="http://www.w3.org/1999/02/22-rdf-syntax-ns#"
   xmlns:svg="http://www.w3.org/2000/svg"
   xmlns="http://www.w3.org/2000/svg"
   xmlns:sodipodi="http://sodipodi.sourceforge.net/DTD/sodipodi-0.dtd"
   xmlns:inkscape="http://www.inkscape.org/namespaces/inkscape"
   width="1792"
   height="1792"
   viewBox="0 0 1792 1792"
   id="svg2"
   version="1.1"
   inkscape:version="0.91 r13725"
   sodipodi:docname="devices.svg">
  <metadata
     id="metadata10">
    <rdf:RDF>
      <cc:Work
         rdf:about="">
        <dc:format>image/svg+xml</dc:format>
        <dc:type
           rdf:resource="http://purl.org/dc/dcmitype/StillImage" />
        <dc:title></dc:title>
      </cc:Work>
    </rdf:RDF>
  </metadata>
  <defs
     id="defs8" />
  <sodipodi:namedview
     pagecolor="#ffffff"
     bordercolor="#666666"
     borderopacity="1"
     objecttolerance="10"
     gridtolerance="10"
     guidetolerance="10"
     inkscape:pageopacity="0"
     inkscape:pageshadow="2"
     inkscape:window-width="846"
     inkscape:window-height="653"
     id="namedview6"
     showgrid="false"
     inkscape:zoom="0.18624688"
     inkscape:cx="788.83918"
     inkscape:cy="1245.1684"
     inkscape:window-x="0"
     inkscape:window-y="23"
     inkscape:window-maximized="0"
     inkscape:current-layer="svg2" />
  <path
     style="fill:#657b83;fill-opacity:1"
     d="m 300.67684,250.20017 c -52.08529,0 -96.67344,18.54552 -133.76447,55.63655 -37.09103,37.09103 -55.63656,81.67919 -55.63656,133.76447 l 0,173.00877 151.52082,-4.09689 0,-168.91188 c 0,-10.25922 3.74857,-19.1374 11.24569,-26.63451 7.49712,-7.49712 16.37531,-11.24569 26.63452,-11.24569 l 1136.40626,0 c 10.2592,0 19.1374,3.74857 26.6346,11.24569 7.4971,7.49711 11.2457,16.37529 11.2457,26.63451 l 0,984.88541 c 0,10.2593 -3.7486,19.1374 -11.2457,26.6344 -7.4972,7.4971 -16.3754,11.2458 -26.6346,11.2458 l -842.21274,0 -0.62193,72.7016 -26.27154,78.8192 1020.62711,0 c 52.0852,0 96.6733,-18.5456 133.7644,-55.6365 37.0911,-37.091 55.6366,-81.6793 55.6366,-133.7645 l 0,-984.88541 c 0,-52.08528 -18.5455,-96.67344 -55.6366,-133.76447 -37.0911,-37.09103 -81.6792,-55.63655 -133.7644,-55.63655 l -1287.92716,0 z M 1626.4841,856.28346 c 20.5184,0 38.2748,7.49711 53.2691,22.49136 14.9941,14.99425 22.4913,32.7506 22.4913,53.26904 0,20.51844 -7.4972,38.27479 -22.4913,53.26904 -14.9943,14.9943 -32.7507,22.4913 -53.2691,22.4913 -20.5185,0 -38.2748,-7.497 -53.269,-22.4913 -14.9943,-14.99425 -22.4913,-32.7506 -22.4913,-53.26904 0,-20.51844 7.497,-38.27479 22.4913,-53.26904 14.9942,-14.99425 32.7505,-22.49136 53.269,-22.49136 z"
     id="path4"
     inkscape:connector-curvature="0" />
  <path
     inkscape:connector-curvature="0"
     style="fill:#93a1a1"
     d="m 394.29855,1583.8995 q 0,-28.9046 -19.26113,-49.4881 -19.26102,-20.5835 -46.30843,-20.5835 -27.04741,0 -46.30855,20.5835 -19.26103,20.5835 -19.26103,49.4881 0,28.9044 19.26103,49.4881 19.26114,20.5835 46.30855,20.5835 27.04741,0 46.30843,-20.5835 19.26113,-20.5837 19.26113,-49.4881 z m 170.48082,-140.1433 0,-616.63011 q 0,-11.38664 -7.7864,-19.70764 -7.7864,-8.321 -18.44138,-8.321 l -419.6452,0 q -10.655,0 -18.44138,8.321 -7.786393,8.321 -7.786393,19.70764 l 0,616.63011 q 0,11.3867 7.786393,19.7077 7.78638,8.3209 18.44138,8.3209 l 419.6452,0 q 10.65498,0 18.44138,-8.3209 7.7864,-8.321 7.7864,-19.7077 z M 407.41245,700.99719 q 0,-14.01432 -13.1139,-14.01432 l -131.13914,0 q -13.11388,0 -13.11388,14.01432 0,14.01432 13.11388,14.01432 l 131.13914,0 q 13.1139,0 13.1139,-14.01432 z m 236.05038,-14.01432 0,896.91663 q 0,45.5466 -31.14558,78.8306 -31.14547,33.284 -73.76566,33.284 l -419.6452,0 q -42.6202,0 -73.765777,-33.284 -31.145577,-33.284 -31.145577,-78.8306 l 0,-896.91663 q 0,-45.54656 31.145577,-78.83056 Q 76.28619,574.8683 118.90639,574.8683 l 419.6452,0 q 42.62019,0 73.76566,33.28401 31.14558,33.284 31.14558,78.83056 z"
     id="path4-1" />
</svg>
